<?xml version="1.0" encoding="utf-8"?>
<!-- Generator: Adobe Illustrator 16.0.0, SVG Export Plug-In . SVG Version: 6.00 Build 0)  -->
<!DOCTYPE svg PUBLIC "-//W3C//DTD SVG 1.1//EN" "http://www.w3.org/Graphics/SVG/1.1/DTD/svg11.dtd">
<svg version="1.1" id="Calque_1" xmlns="http://www.w3.org/2000/svg" xmlns:xlink="http://www.w3.org/1999/xlink" x="0px" y="0px"
	 width="53px" height="53px" viewBox="0 0 53 53" enable-background="new 0 0 53 53" xml:space="preserve">
<g>
	<path d="M22.834,46.15c0,0.246,0.243,0.322,0.496,0.322h0.039v-0.619h-0.103C23.021,45.854,22.834,45.932,22.834,46.15z
		 M23.33,23.154h0.039v-0.621h-0.103c-0.245,0-0.431,0.08-0.431,0.298C22.834,23.079,23.077,23.154,23.33,23.154z M23.605,47.545
		c-0.462,0-0.727,0.053-0.727,0.352c0,0.223,0.177,0.301,0.698,0.301c0.437,0,0.713-0.057,0.713-0.326
		C24.289,47.605,24.017,47.545,23.605,47.545z M24.021,43.111c0.161,0,0.29-0.08,0.29-0.24c0-0.234-0.177-0.348-0.458-0.348h-0.321
		c0.078,0.1,0.125,0.314,0.177,0.43C23.763,43.063,23.879,43.111,24.021,43.111z M22.834,38.053c0,0.246,0.243,0.322,0.496,0.322
		h0.039v-0.619h-0.103C23.021,37.756,22.834,37.832,22.834,38.053z M23.592,44.127c-0.439,0-0.713,0.059-0.713,0.328
		c0,0.266,0.272,0.326,0.684,0.326c0.462,0,0.727-0.057,0.727-0.33C24.289,44.23,24.124,44.127,23.592,44.127z M23.33,20.387h0.039
		v-0.621h-0.103c-0.245,0-0.431,0.079-0.431,0.298C22.834,20.311,23.077,20.387,23.33,20.387z M44.568,7.867
		c-6.711-4.819-13.165-7.451-19.184-7.822C18.257-0.394,11.83,2.391,6.277,8.324C-0.95,16.049-0.812,21.459,1.16,31.148
		c1.292,6.348,5.061,12.479,10.34,16.818c6.137,5.045,13.349,6.344,20.854,3.752c8.269-2.854,16.178-11.025,19.238-19.873
		C54.922,22.204,52.361,13.463,44.568,7.867z M11.807,28.684c2.767,0,2.976-3.094,2.992-3.446l0.002-0.052h1.818
		c0.167,0,0.333,0.071,0.447,0.194c0.116,0.121,0.175,0.28,0.161,0.446c-0.068,1.197-0.665,5.105-5.448,5.105
		c-4.018,0-6.139-3.059-6.139-8.847c0-5.776,2.122-8.829,6.139-8.829c4.972,0,5.411,4.28,5.448,5.138
		c0.008,0.155-0.049,0.304-0.161,0.419c-0.117,0.12-0.28,0.189-0.447,0.189H14.8l-0.002-0.052c-0.006-0.141-0.177-3.446-2.992-3.446
		c-2.475,0-3.73,2.216-3.734,6.589C8.076,26.467,9.332,28.684,11.807,28.684z M23.086,18.759c0.15,0,0.212-0.068,0.282-0.273
		l0.087-0.247c0.097-0.287,0.249-0.419,0.554-0.419c0.414,0,0.589,0.301,0.589,0.692c0,0.488-0.226,0.635-0.599,0.635h-0.072v-0.345
		h0.06c0.224,0,0.346-0.078,0.346-0.301c0-0.211-0.109-0.316-0.284-0.316c-0.144,0-0.237,0.076-0.284,0.212l-0.111,0.316
		c-0.101,0.29-0.249,0.412-0.558,0.412c-0.361,0-0.53-0.262-0.53-0.659c0-0.492,0.288-0.603,0.528-0.603h0.085v0.366h-0.05
		c-0.154,0-0.297,0.053-0.297,0.254C22.834,18.637,22.906,18.759,23.086,18.759z M23.43,19.379h0.202v1.008h0.113
		c0.258,0,0.589-0.033,0.589-0.323c0-0.276-0.317-0.309-0.432-0.309V19.39c0.426,0,0.696,0.258,0.696,0.678
		c0,0.314-0.093,0.706-0.985,0.706c-0.505,0-1.045-0.108-1.045-0.713C22.568,19.522,22.892,19.379,23.43,19.379z M22.583,20.892
		h0.394c-0.006,0.029-0.021,0.098-0.021,0.163c0,0.174,0.078,0.387,0.437,0.387h1.156v0.386H22.62v-0.386h0.299v-0.008
		c-0.214-0.086-0.352-0.229-0.352-0.448C22.568,20.942,22.576,20.917,22.583,20.892z M23.43,22.147h0.202v1.007h0.113
		c0.258,0,0.589-0.033,0.589-0.323c0-0.275-0.317-0.309-0.432-0.309v-0.365c0.426,0,0.696,0.258,0.696,0.678
		c0,0.314-0.093,0.706-0.985,0.706c-0.505,0-1.045-0.107-1.045-0.713C22.568,22.291,22.892,22.147,23.43,22.147z M23.205,43.082
		v0.365c-0.41,0-0.637-0.166-0.637-0.678c0-0.34,0.132-0.613,0.474-0.613h1.105c0.07,0,0.136-0.041,0.136-0.1
		c0-0.025-0.004-0.051-0.012-0.064h0.251c0.021,0.047,0.046,0.115,0.046,0.189c0,0.172-0.068,0.316-0.254,0.328v0.006
		c0.19,0.104,0.284,0.254,0.284,0.479c0,0.311-0.171,0.504-0.542,0.504c-0.43,0-0.519-0.186-0.606-0.449l-0.082-0.301
		c-0.039-0.139-0.078-0.225-0.249-0.225c-0.173,0-0.286,0.061-0.286,0.264C22.834,43.047,23.019,43.082,23.205,43.082z
		 M21.969,29.969h0.299v0.107c0,0.143,0.053,0.207,0.183,0.207h0.169v-0.314h0.286v0.314h1.644v0.389h-1.644v0.268H22.62v-0.268
		h-0.181c-0.365,0-0.48-0.176-0.48-0.492C21.959,30.1,21.963,30.027,21.969,29.969z M21.959,24.265v-0.386h0.387v0.386H21.959z
		 M23.394,29.406h1.156v0.387H22.62v-0.387h0.299v-0.008c-0.214-0.086-0.352-0.229-0.352-0.447c0-0.043,0.008-0.068,0.016-0.094
		h0.394c-0.006,0.029-0.021,0.098-0.021,0.16C22.957,29.193,23.034,29.406,23.394,29.406z M23.695,34.342
		c0.548,0,0.717-0.193,0.717-0.404c0-0.227-0.161-0.365-0.496-0.402V33.32c0.406,0.031,0.674,0.254,0.674,0.611
		c0,0.402-0.28,0.639-0.997,0.639c-0.659,0-0.993-0.236-0.993-0.654c0-0.424,0.292-0.613,0.925-0.613h0.08v1.039H23.695z M24,33.061
		h-0.062v-0.215h0.05c0.28,0,0.424-0.121,0.424-0.365c0-0.229-0.128-0.377-0.34-0.377c-0.169,0-0.276,0.068-0.352,0.258
		l-0.118,0.303c-0.105,0.27-0.263,0.365-0.451,0.365c-0.39,0-0.55-0.244-0.55-0.566c0-0.359,0.185-0.523,0.531-0.523h0.054v0.215
		h-0.054c-0.247,0-0.35,0.115-0.35,0.313c0,0.25,0.132,0.348,0.322,0.348c0.132,0,0.235-0.045,0.319-0.258l0.118-0.313
		c0.097-0.258,0.276-0.354,0.484-0.354c0.326,0,0.565,0.186,0.565,0.588C24.59,32.869,24.429,33.061,24,33.061z M21.989,34.92h2.561
		v0.217h-2.561V34.92z M22.568,36.207c0-0.043,0.008-0.068,0.016-0.094h0.394c-0.006,0.029-0.021,0.096-0.021,0.162
		c0,0.174,0.078,0.387,0.437,0.387h1.156v0.387H22.62v-0.387h0.299v-0.006C22.706,36.568,22.568,36.424,22.568,36.207z M24,41.85
		h-0.072v-0.344h0.06c0.224,0,0.346-0.078,0.346-0.303c0-0.211-0.109-0.316-0.284-0.316c-0.144,0-0.237,0.076-0.284,0.215
		l-0.111,0.314c-0.101,0.289-0.249,0.412-0.558,0.412c-0.361,0-0.53-0.264-0.53-0.662c0-0.488,0.288-0.6,0.528-0.6h0.085v0.365
		h-0.05c-0.154,0-0.297,0.053-0.297,0.254c0,0.154,0.072,0.277,0.252,0.277c0.15,0,0.212-0.068,0.282-0.275l0.087-0.246
		c0.097-0.285,0.249-0.42,0.554-0.42c0.414,0,0.589,0.301,0.589,0.691C24.598,41.703,24.373,41.85,24,41.85z M24,40.322h-0.072
		v-0.344h0.06c0.224,0,0.346-0.08,0.346-0.303c0-0.211-0.109-0.316-0.284-0.316c-0.144,0-0.237,0.076-0.284,0.215l-0.111,0.314
		c-0.101,0.289-0.249,0.412-0.558,0.412c-0.361,0-0.53-0.262-0.53-0.66c0-0.49,0.288-0.602,0.528-0.602h0.085v0.365h-0.05
		c-0.154,0-0.297,0.053-0.297,0.256c0,0.152,0.072,0.275,0.252,0.275c0.15,0,0.212-0.07,0.282-0.271l0.087-0.25
		c0.097-0.285,0.249-0.42,0.554-0.42c0.414,0,0.589,0.303,0.589,0.693C24.598,40.174,24.373,40.322,24,40.322z M23.613,38.762
		c-0.505,0-1.045-0.107-1.045-0.713c0-0.539,0.324-0.682,0.862-0.682h0.202v1.008h0.113c0.258,0,0.589-0.031,0.589-0.322
		c0-0.275-0.317-0.309-0.432-0.309v-0.365c0.426,0,0.696,0.258,0.696,0.678C24.598,38.371,24.505,38.762,23.613,38.762z
		 M23.584,28.738c-0.601,0-1.016-0.156-1.016-0.717c0-0.563,0.416-0.719,1.016-0.719c0.598,0,1.014,0.182,1.014,0.719
		C24.598,28.557,24.182,28.738,23.584,28.738z M23.253,26.617h1.296v0.387H22.62v-0.365h0.226v-0.011
		c-0.173-0.096-0.278-0.279-0.278-0.495c0-0.293,0.132-0.48,0.524-0.48h1.457v0.387h-1.323c-0.253,0-0.348,0.076-0.348,0.268
		C22.878,26.465,23.003,26.617,23.253,26.617z M24.549,23.879v0.386H22.62v-0.386H24.549z M22.62,24.8v-0.316h0.286V24.8h1.15
		c0.151,0,0.206-0.043,0.206-0.177c0-0.057-0.004-0.103-0.011-0.139h0.287c0.021,0.082,0.031,0.19,0.031,0.312
		c0,0.262-0.072,0.391-0.466,0.391h-1.197v0.264H22.62v-0.264h-0.55V24.8H22.62z M22.368,22.868l-0.515,0.379v-0.43l0.515-0.215
		V22.868z M22.368,46.049v0.266L21.853,46.1v-0.43L22.368,46.049z M23.559,48.605c-0.859,0-0.991-0.303-0.991-0.594
		c0-0.209,0.105-0.365,0.278-0.439v-0.006h-0.857V47.18h2.561v0.365h-0.239v0.006c0.126,0.053,0.288,0.148,0.288,0.426
		C24.598,48.428,24.221,48.605,23.559,48.605z M23.613,46.861c-0.505,0-1.045-0.109-1.045-0.715c0-0.537,0.324-0.682,0.862-0.682
		h0.202v1.008h0.113c0.258,0,0.589-0.031,0.589-0.322c0-0.273-0.317-0.309-0.432-0.309v-0.365c0.426,0,0.696,0.258,0.696,0.676
		C24.598,46.471,24.505,46.861,23.613,46.861z M25.179,45.148H22.62v-0.367h0.235v-0.006c-0.171-0.08-0.288-0.225-0.288-0.436
		c0-0.441,0.379-0.619,1.042-0.619c0.81,0,0.989,0.33,0.989,0.594c0,0.207-0.103,0.367-0.276,0.439v0.006h0.856V45.148z
		 M28.809,30.25c0,0.434-0.235,0.686-0.69,0.686h-1.632V18.41c0-1.645-1.334-2.979-2.98-2.979s-2.979,1.334-2.979,2.979v12.524
		h-1.644c-0.404,0-0.678-0.24-0.678-0.688V14.321c0-0.371,0.19-0.694,0.686-0.694h1.642v0.938c0.88-0.803,2.048-1.292,3.334-1.292
		c2.729,0,4.941,2.313,4.941,5.041C28.809,18.329,28.809,30.25,28.809,30.25z M35.146,15.4c-1.646,0-2.98,1.333-2.98,2.979
		c0,0.001,0,12.523,0,12.523h-1.644c-0.404,0-0.678-0.24-0.678-0.688V14.291c0-0.372,0.188-0.695,0.684-0.695h1.646v0.938
		c0.878-0.803,2.048-1.292,3.33-1.292c0.526,0,1.034,0.087,1.512,0.247c0.243,0.083,0.422,0.313,0.422,0.587
		c0,0.147-0.053,0.281-0.139,0.388l0.006,0.003l-0.949,1.191C35.985,15.494,35.575,15.4,35.146,15.4z M41.36,30.932
		c-1.265,0-3.021-0.322-4.22-1.863c-0.437-0.563-0.433-0.898,0.016-1.293l0.87-0.766l0.051,0.061c1.325,1.5,2.403,1.707,3.371,1.707
		c1.125,0,3.028-0.563,3.028-2.671c0-1.544-0.765-2.159-2.37-2.878l-1.597-0.714c-1.814-0.805-3.493-1.919-3.493-4.583
		c0-2.709,2.188-4.675,5.203-4.675c1.562,0,2.871,0.528,3.686,1.49c0.202,0.26,0.344,0.666-0.141,1.115l-0.837,0.764l-0.053-0.054
		c-0.971-0.989-1.766-1.188-2.735-1.188c-1.642,0-2.743,1.012-2.743,2.519c0,1.156,0.534,1.799,2.04,2.461l1.567,0.683v0
		c2.313,0.996,3.854,2.229,3.854,5.004C46.858,29.254,44.092,30.932,41.36,30.932z M22.782,33.938c0,0.264,0.171,0.396,0.645,0.404
		v-0.811C22.953,33.537,22.782,33.672,22.782,33.938z M23.584,27.689c-0.426,0-0.729,0.051-0.729,0.332
		c0,0.279,0.303,0.33,0.729,0.33c0.491,0,0.727-0.051,0.727-0.33C24.311,27.74,24.075,27.689,23.584,27.689z"/>
</g>
</svg>
